<svg width="42" height="58" viewBox="0 0 42 58" fill="none" xmlns="http://www.w3.org/2000/svg">
<path d="M41.4873 25.9093L39.2879 27.1168L20.7005 17.4566V16.4215V15.4296V15.0415L41.4873 25.9093Z" fill="black"/>
<path d="M0 25.9095L2.19944 27.117L5.08889 25.5645V24.5295V23.5375V23.1494L0 25.9095Z" fill="black"/>
<path d="M0 46.4377L2.19944 45.2302L8.45273 48.5078V49.5428V50.5347V50.9229L0 46.4377Z" fill="black"/>
<path d="M41.4873 46.4377L39.2879 45.2302L33.0346 48.5078V49.5428V50.5347V50.9229L41.4873 46.4377Z" fill="black"/>
<path d="M35.0186 27.9364V25.6076L16.2155 36.2597V37.2948V38.2867V38.6748L35.0186 27.9364Z" fill="black"/>
<path d="M7.10331 3.56248L6.96806 1.2376L28.9378 11.9365L28.9378 12.7128L28.9378 13.7047L28.9378 14.1791L7.10331 3.56248Z" fill="black"/>
<path d="M29.1533 52.9065L26.9539 51.6989L20.7006 54.9765V56.0116V57.0035V57.3916L29.1533 52.9065Z" fill="black"/>
<path d="M16.2153 54.8903L18.3285 53.6827L20.7867 54.9765V56.0116V57.0035V57.3916L16.2153 54.8903Z" fill="black"/>
<path d="M9.40137 20.9498V23.3649L20.7867 17.4566V16.4215V15.4296V15.0415L9.40137 20.9498Z" fill="black"/>
<rect y="25.9097" width="2.24256" height="20.5281" fill="black"/>
<path d="M6.20996 0.810059L8.45252 1.93134V48.6801H6.20996V0.810059Z" fill="black"/>
<rect x="16.2153" y="36.2598" width="2.24256" height="18.6305" fill="black"/>
<path d="M32.7759 27.3325L35.0184 25.9956V49.8444L32.7759 51.0951V27.3325Z" fill="black"/>
<path d="M26.9108 43.7207L29.1534 42.3838V52.9066L26.8677 54.071L26.9108 43.7207Z" fill="black"/>
<path d="M29.1102 12.023L26.8676 10.9448V16.6806L29.1533 17.845L29.1102 12.023Z" fill="black"/>
<rect x="39.2446" y="25.9097" width="2.24256" height="20.5281" fill="black"/>
</svg>
