<?xml version="1.0" encoding="utf-8"?>
<!-- Generator: Adobe Illustrator 24.0.2, SVG Export Plug-In . SVG Version: 6.00 Build 0)  -->
<svg version="1.1" id="Слой_1" xmlns="http://www.w3.org/2000/svg" xmlns:xlink="http://www.w3.org/1999/xlink" x="0px" y="0px"
	 viewBox="0 0 20 20" style="enable-background:new 0 0 20 20;" xml:space="preserve">
<style type="text/css">
	.st0{clip-path:url(#SVGID_1_);}
	.st1{fill:#FFFFFF;}
</style>
<g>
	<defs>
		<rect id="SVGID_3_" x="0" width="20" height="20"/>
	</defs>
	<clipPath id="SVGID_1_">
		<use xlink:href="#SVGID_3_"  style="overflow:visible;"/>
	</clipPath>
	<g class="st0">
		<path class="st1" d="M8.8,11.9L12,10L8.8,8.1V11.9z"/>
		<path class="st1" d="M10,0C4.5,0,0,4.5,0,10s4.5,10,10,10s10-4.5,10-10S15.5,0,10,0z M16.2,10c0,0,0,2-0.3,3
			c-0.1,0.5-0.6,1-1.1,1.1c-1,0.3-4.9,0.3-4.9,0.3s-3.9,0-4.9-0.3C4.6,14,4.2,13.5,4,13c-0.3-1-0.3-3-0.3-3s0-2,0.3-3
			c0.1-0.5,0.6-1,1.1-1.1c1-0.3,4.9-0.3,4.9-0.3s3.9,0,4.9,0.3C15.4,6,15.8,6.5,16,7C16.3,8,16.2,10,16.2,10z"/>
	</g>
</g>
</svg>
