<svg width="20" height="20" viewBox="0 0 20 20" fill="none" xmlns="http://www.w3.org/2000/svg">
<path d="M10.0005 0.15387C4.56276 0.15387 0.154297 4.56233 0.154297 10C0.154297 15.4377 4.56276 19.8462 10.0005 19.8462C15.4381 19.8462 19.8466 15.4377 19.8466 10C19.8466 4.56233 15.4381 0.15387 10.0005 0.15387ZM14.9297 7.46848L14.9381 7.79772C14.9381 11.6916 12.3797 15.0385 7.69814 15.0385C6.26045 15.0385 4.92353 14.6169 3.79737 13.8931C3.9966 13.9162 4.19891 13.9285 4.4043 13.9285C5.5966 13.9285 6.6943 13.5231 7.5643 12.8408C6.45122 12.8208 5.53122 12.1423 5.20737 11.1308C5.60045 11.1939 6.07353 11.14 6.33737 11.0316C5.75583 10.9139 5.24583 10.5985 4.88045 10.1577C4.51583 9.71772 4.2966 9.15233 4.2966 8.53618C4.63968 8.72695 5.03199 8.80925 5.44891 8.82387C4.7666 8.36772 4.31737 7.58848 4.31737 6.70541C4.31737 6.23925 4.44199 5.80156 4.66122 5.42695C5.9166 6.96618 7.79199 7.97925 9.9066 8.08541C9.86276 7.89925 9.84045 7.70464 9.84045 7.50541C9.84045 6.10079 10.9804 4.96156 12.3858 4.96156C13.1181 4.96156 13.7351 5.26848 14.1635 5.68618C14.6443 5.67002 15.3081 5.43925 15.8597 5.14772C15.6697 5.74079 15.2666 6.24002 14.7412 6.55464C15.2558 6.53464 15.6974 6.42772 16.1535 6.22541C15.8135 6.73541 15.4297 7.11233 14.9297 7.46848Z" fill="white"/>
</svg>
